<svg version="1.0" preserveAspectRatio="xMidYMid meet" viewBox="12.500024999999999 74.99999820000001 339 110.249997354" zoomAndPan="magnify" xmlns:xlink="http://www.w3.org/1999/xlink" xmlns="http://www.w3.org/2000/svg" style="max-height: 500px" width="339" height="110.249997354"><defs><g/><clipPath id="ff7255fd80"><path clip-rule="nonzero" d="M 94.175781 165.265625 L 102.769531 165.265625 L 102.769531 180.53125 L 94.175781 180.53125 Z M 94.175781 165.265625"/></clipPath><clipPath id="c2afbbd0a0"><path clip-rule="nonzero" d="M 17.230469 83.050781 L 104.632812 83.050781 L 104.632812 129.359375 L 17.230469 129.359375 Z M 17.230469 83.050781"/></clipPath><clipPath id="0fc5419aa8"><rect height="46" y="0" width="227" x="0"/></clipPath></defs><g clip-path="url(#ff7255fd80)"><path fill-rule="nonzero" fill-opacity="1" d="M 94.667969 176.316406 C 95.820312 179.339844 98.492188 180.101562 98.492188 180.101562 C 94.972656 179.945312 94.667969 176.316406 94.667969 176.316406 Z M 94.230469 176.273438 C 94.230469 178.625 96.140625 180.53125 98.492188 180.53125 C 100.84375 180.53125 102.753906 178.625 102.753906 176.273438 C 102.753906 173.402344 99.425781 169.789062 98.492188 165.328125 C 97.5625 169.789062 94.230469 173.402344 94.230469 176.273438" fill="#0165a1"/></g><path fill-rule="nonzero" fill-opacity="1" d="M 95.625 160.519531 L 95.625 160.863281 L 101.644531 160.863281 L 101.644531 159.761719 C 101.644531 157.515625 100.753906 155.359375 99.164062 153.773438 C 97.574219 152.183594 95.417969 151.289062 93.171875 151.289062 L 92.363281 151.289062 C 90.757812 151.289062 89.457031 149.988281 89.457031 148.382812 L 89.457031 147.0625 L 90.105469 147.0625 C 90.492188 147.0625 90.808594 146.746094 90.808594 146.355469 C 90.808594 145.96875 90.492188 145.652344 90.105469 145.652344 L 87.363281 145.652344 L 89.414062 145.5 C 89.488281 145.390625 89.535156 145.257812 89.535156 145.113281 C 89.535156 144.722656 89.21875 144.410156 88.832031 144.410156 L 86.894531 144.410156 L 86.894531 141.421875 C 87.210938 141.175781 87.457031 140.839844 87.59375 140.453125 L 90.5 140.894531 C 91.21875 141.003906 91.867188 140.445312 91.867188 139.71875 C 91.867188 138.992188 91.21875 138.4375 90.5 138.546875 L 87.570312 138.988281 C 87.265625 138.195312 86.5 137.636719 85.601562 137.636719 C 84.695312 137.636719 83.925781 138.203125 83.625 139 L 80.601562 138.546875 C 79.882812 138.4375 79.238281 138.992188 79.238281 139.71875 C 79.238281 140.445312 79.882812 141.003906 80.601562 140.894531 L 83.605469 140.441406 C 83.742188 140.832031 83.988281 141.171875 84.308594 141.421875 L 84.308594 144.410156 L 82.371094 144.410156 C 81.980469 144.410156 81.664062 144.722656 81.664062 145.113281 C 81.664062 145.242188 81.703125 145.359375 81.761719 145.460938 L 84.296875 145.652344 L 81.175781 145.652344 C 80.785156 145.652344 80.472656 145.96875 80.472656 146.355469 C 80.472656 146.746094 80.785156 147.0625 81.175781 147.0625 L 81.878906 147.0625 L 81.878906 148.675781 C 81.878906 150.121094 80.710938 151.289062 79.265625 151.289062 L 75.261719 151.289062 L 75.261719 148.925781 L 71.121094 148.925781 L 71.121094 150.953125 L 45.792969 150.953125 C 39.785156 150.953125 34.898438 146.066406 34.898438 140.058594 L 34.898438 134.320312 L 38.191406 134.320312 L 38.191406 132.628906 L 24.34375 132.628906 L 24.34375 134.320312 L 27.300781 134.320312 L 27.300781 140.058594 C 27.300781 150.257812 35.59375 158.550781 45.792969 158.550781 L 71.121094 158.550781 L 71.121094 160.324219 L 75.261719 160.324219 L 75.261719 157.691406 L 79.589844 157.691406 C 82.585938 157.632812 83.054688 159.984375 85.699219 159.984375 C 86.832031 159.984375 87.660156 159.558594 88.242188 159.070312 C 89.355469 158.132812 90.792969 157.664062 92.246094 157.664062 L 92.765625 157.664062 C 93.523438 157.664062 94.25 157.964844 94.789062 158.5 C 95.324219 159.035156 95.625 159.761719 95.625 160.519531" fill="#a6a6a6"/><path fill-rule="nonzero" fill-opacity="1" d="M 102.332031 161.335938 L 94.65625 161.335938 C 94.265625 161.335938 93.949219 161.648438 93.949219 162.039062 C 93.949219 162.429688 94.265625 162.742188 94.65625 162.742188 L 102.332031 162.742188 C 102.71875 162.742188 103.035156 162.429688 103.035156 162.039062 C 103.035156 161.648438 102.71875 161.335938 102.332031 161.335938" fill="#a6a6a6"/><path fill-rule="nonzero" fill-opacity="1" d="M 34.898438 98.945312 L 27.300781 98.945312 L 27.300781 110.152344 L 34.898438 103.671875 L 34.898438 98.945312" fill="#0165a1"/><g clip-path="url(#c2afbbd0a0)"><path fill-rule="nonzero" fill-opacity="1" d="M 103.296875 119.175781 L 60.929688 83.050781 L 18.5625 119.175781 C 16.96875 120.535156 16.777344 122.933594 18.136719 124.53125 C 19.5 126.128906 21.898438 126.320312 23.496094 124.957031 L 27.300781 121.714844 L 27.300781 127.648438 L 24.34375 127.648438 L 24.34375 129.335938 L 38.191406 129.335938 L 38.191406 127.648438 L 34.898438 127.648438 L 34.898438 115.234375 L 60.929688 93.039062 L 98.367188 124.957031 C 99.964844 126.320312 102.363281 126.128906 103.722656 124.53125 C 105.085938 122.933594 104.894531 120.535156 103.296875 119.175781" fill="#0165a1"/></g><path fill-rule="nonzero" fill-opacity="1" d="M 59.984375 115.507812 L 59.984375 108.894531 L 53.375 108.894531 L 53.375 115.507812 L 59.984375 115.507812" fill="#808184"/><path fill-rule="nonzero" fill-opacity="1" d="M 61.875 115.507812 L 68.488281 115.507812 L 68.488281 108.894531 L 61.875 108.894531 L 61.875 115.507812" fill="#808184"/><path fill-rule="nonzero" fill-opacity="1" d="M 61.875 117.226562 L 61.875 123.835938 L 68.488281 123.835938 L 68.488281 117.226562 L 61.875 117.226562" fill="#808184"/><path fill-rule="nonzero" fill-opacity="1" d="M 59.984375 117.226562 L 53.375 117.226562 L 53.375 123.835938 L 59.984375 123.835938 L 59.984375 117.226562" fill="#808184"/><g transform="matrix(1, 0, 0, 1, 119, 108)"><g clip-path="url(#0fc5419aa8)"><g fill-opacity="1" fill="#0165a1"><g transform="translate(1.607801, 36.835613)"><g><path d="M 23.890625 -20.546875 L 26.0625 -15.875 L 25.75 -2.671875 L 22.953125 -0.171875 L 2.578125 0 L 0.890625 -3.515625 L 1.734375 -12.140625 L 9.390625 -12.09375 L 10.015625 -8.140625 L 16.8125 -8.28125 L 17.03125 -13.875 L 3.296875 -15.4375 L 1.296875 -17.703125 L 1.515625 -32.609375 L 3.25 -34.703125 L 19.578125 -35.546875 L 25.3125 -33.890625 L 25.71875 -25.484375 L 24.0625 -24.0625 L 17.84375 -23.75 L 16.71875 -27.359375 L 10.8125 -26.875 L 10.328125 -21.75 Z M 23.890625 -20.546875"/></g></g></g><g fill-opacity="1" fill="#0165a1"><g transform="translate(28.566846, 36.835613)"><g><path d="M 26.015625 -24.203125 L 26.328125 0 L 20.234375 0.046875 L 19.3125 -1.515625 L 18.28125 0 L 4.21875 -0.140625 L 0.890625 -2.578125 L 1.6875 -14.140625 L 4.265625 -15.921875 L 16.71875 -16.140625 L 16.859375 -19.171875 L 10.546875 -19.625 L 9.78125 -17.96875 L 1.640625 -18.5 L 1.203125 -21.703125 L 3.515625 -25.625 L 23.09375 -25.890625 Z M 17.03125 -6.9375 L 17 -11.03125 L 10.359375 -10.9375 L 10.625 -7.203125 Z M 17.03125 -6.9375"/></g></g></g><g fill-opacity="1" fill="#0165a1"><g transform="translate(55.79281, 36.835613)"><g><path d="M 24.015625 -26.0625 L 25.796875 -24.328125 L 25.71875 -1.25 L 23.484375 -0.046875 L 16.5 -0.171875 L 16.5 -18.0625 L 10.28125 -17.875 L 10.40625 -0.71875 L 1.015625 -0.09375 L 0.890625 -25.53125 L 6.578125 -25.671875 L 7.390625 -24.328125 L 8.5 -25.40625 Z M 24.015625 -26.0625"/></g></g></g><g fill-opacity="1" fill="#0165a1"><g transform="translate(82.484935, 36.835613)"><g><path d="M 0.890625 -0.09375 L 1.109375 -26.015625 L 10.765625 -26.015625 L 9.5625 -0.53125 Z M 8.359375 -26.90625 L 3.515625 -26.828125 L 1.296875 -28.34375 L 1.515625 -35.546875 L 9.921875 -35.546875 L 11.03125 -34.34375 L 10.046875 -28.296875 Z M 8.359375 -26.90625"/></g></g></g><g fill-opacity="1" fill="#0165a1"><g transform="translate(94.407412, 36.835613)"><g><path d="M 24.203125 -9.203125 L 24.203125 -3.875 L 21.9375 -0.265625 L 4.140625 0 L 2.453125 -2.84375 L 2.625 -19.078125 L 0.9375 -19.484375 L 0.890625 -24.734375 L 1.875 -25.75 L 3.15625 -25.84375 L 3.640625 -32.25 L 10.546875 -32.125 L 11.609375 -30.96875 L 11.5625 -25.84375 L 21.21875 -25.625 L 22.328125 -24.0625 L 22.25 -18.90625 L 21.078125 -18.0625 L 11.703125 -18.328125 L 11.296875 -7.203125 L 15.53125 -7.03125 L 16.546875 -11.171875 L 23.09375 -10.765625 Z M 24.203125 -9.203125"/></g></g></g><g fill-opacity="1" fill="#0165a1"><g transform="translate(119.498007, 36.835613)"><g><path d="M 26.015625 -24.15625 L 26.328125 0 L 20.234375 0.046875 L 19.3125 -1.46875 L 18.28125 0 L 4.21875 -0.140625 L 0.890625 -2.53125 L 1.6875 -14.140625 L 4.265625 -15.875 L 16.71875 -16.109375 L 16.859375 -19.171875 L 10.546875 -19.578125 L 9.78125 -17.921875 L 1.640625 -18.46875 L 1.203125 -21.65625 L 3.515625 -25.625 L 23.09375 -25.890625 Z M 10.625 -7.15625 L 17.03125 -6.890625 L 17 -10.984375 L 10.359375 -10.90625 Z M 12.015625 -27.40625 L 5.734375 -27.40625 L 4.71875 -28.515625 L 5.5625 -33.71875 L 7.078125 -34.96875 L 11.34375 -35.046875 L 13.34375 -33.71875 L 13.171875 -28.421875 Z M 21.359375 -27.40625 L 15.265625 -27.40625 L 14.234375 -28.46875 L 14.6875 -33.625 L 15.96875 -34.96875 L 20.6875 -35.046875 L 22.6875 -33.71875 L 22.515625 -28.421875 Z M 21.359375 -27.40625"/></g></g></g><g fill-opacity="1" fill="#0165a1"><g transform="translate(146.723972, 36.835613)"><g><path d="M 22.421875 -25.671875 L 24.734375 -22.640625 L 24.59375 -14.640625 L 23.265625 -12.453125 L 16.28125 -12.59375 L 15.65625 -17.875 L 10.546875 -18.15625 L 10.546875 -0.09375 L 1.25 -0.578125 L 0.890625 -25.9375 L 6.453125 -25.890625 L 7.296875 -24.421875 L 8.359375 -25.625 Z M 22.421875 -25.671875"/></g></g></g><g fill-opacity="1" fill="#ff3131"><g transform="translate(172.35785, 36.835613)"><g><path d="M 25.140625 -8.359375 L 25.53125 0.046875 L 2.578125 -0.09375 L 1.015625 -1.90625 L 0.890625 -9.125 L 15.796875 -23.703125 L 15.484375 -26.90625 L 10.046875 -27.453125 L 8.9375 -23.796875 L 2.578125 -24.109375 L 0.9375 -25.53125 L 1.328125 -33.9375 L 7.078125 -35.59375 L 23.578125 -34.78125 L 25.140625 -30.96875 L 25 -20.421875 L 12.1875 -8.234375 Z M 25.140625 -8.359375"/></g></g></g><g fill-opacity="1" fill="#ff3131"><g transform="translate(198.783043, 36.835613)"><g><path d="M 23.9375 -22.203125 L 26.875 -22.15625 L 26.78125 -13.171875 L 23.890625 -13.25 L 23.75 -0.75 L 15.21875 -0.046875 L 15.03125 -13.609375 L 2.484375 -14.09375 L 0.890625 -16.0625 L 1.15625 -34.515625 L 10.234375 -34.96875 L 10.140625 -22.328125 L 14.90625 -22.28125 L 14.6875 -34.96875 L 24.0625 -35.546875 Z M 23.9375 -22.203125"/></g></g></g></g></g><g fill-opacity="1" fill="#0165a1"><g transform="translate(126.09122, 166.466708)"><g><path d="M 5.9375 -7.453125 L 2.8125 -7.515625 L 2.8125 -6.21875 L 4.8125 -6.109375 L 4.8125 -3.96875 L 2.796875 -4.09375 L 2.78125 -0.125 L 0.25 0 L 0.25 -9.875 L 6 -9.6875 Z M 5.9375 -7.453125"/></g></g></g><g fill-opacity="1" fill="#0165a1"><g transform="translate(134.289836, 166.466708)"><g><path d="M 0.328125 -9.734375 L 3 -9.8125 L 2.65625 -0.25 L 0.25 0.015625 Z M 0.328125 -9.734375"/></g></g></g><g fill-opacity="1" fill="#0165a1"><g transform="translate(139.480383, 166.466708)"><g><path d="M 5.421875 -4.890625 L 7.453125 -1.203125 L 7.40625 -0.703125 L 5.359375 0.03125 L 3.90625 -2.34375 L 2.625 0.0625 L 0.5 -0.609375 L 0.25 -1.09375 L 2.25 -4.859375 L 0.296875 -7.921875 L 0.375 -8.5 L 2.3125 -9.84375 L 3.78125 -7.546875 L 5.078125 -9.8125 L 7.265625 -8.609375 L 7.3125 -7.96875 Z M 5.421875 -4.890625"/></g></g></g><g fill-opacity="1" fill="#0165a1"><g transform="translate(149.133714, 166.466708)"><g/></g></g><g fill-opacity="1" fill="#0165a1"><g transform="translate(154.7804, 166.466708)"><g><path d="M 7.609375 -5.359375 L 7.671875 -3.484375 L 7.15625 -3.46875 L 7.140625 -0.921875 L 6.6875 -0.046875 L 0.734375 -0.015625 L 0.3125 -0.796875 L 0.265625 -3.765625 L 1.078125 -5.203125 L 0.265625 -6.359375 L 0.25 -9.21875 L 0.625 -9.84375 L 6.53125 -9.875 L 7.28125 -9.21875 L 7.09375 -6.625 L 4.796875 -6.625 L 4.625 -7.859375 L 2.828125 -7.71875 L 2.84375 -6.609375 L 3.65625 -5.265625 L 2.875 -3.890625 L 2.90625 -2.109375 L 4.59375 -2 L 4.671875 -3.359375 L 3.96875 -3.34375 L 4 -5.25 Z M 7.609375 -5.359375"/></g></g></g><g fill-opacity="1" fill="#0165a1"><g transform="translate(164.643319, 166.466708)"><g/></g></g><g fill-opacity="1" fill="#0165a1"><g transform="translate(170.290005, 166.466708)"><g><path d="M 5.9375 -7.453125 L 2.8125 -7.515625 L 2.8125 -6.21875 L 4.8125 -6.109375 L 4.8125 -3.96875 L 2.796875 -4.09375 L 2.78125 -0.125 L 0.25 0 L 0.25 -9.875 L 6 -9.6875 Z M 5.9375 -7.453125"/></g></g></g><g fill-opacity="1" fill="#0165a1"><g transform="translate(178.48862, 166.466708)"><g><path d="M 6.078125 -2.234375 L 6.21875 -0.03125 L 0.25 -0.03125 L 0.25 -9.890625 L 6.015625 -9.703125 L 5.9375 -7.453125 L 2.78125 -7.484375 L 2.78125 -6.25 L 4.8125 -6.125 L 4.8125 -3.984375 L 2.765625 -4.109375 L 2.75 -2.421875 Z M 6.078125 -2.234375"/></g></g></g><g fill-opacity="1" fill="#0165a1"><g transform="translate(186.896811, 166.466708)"><g><path d="M 6.71875 -2.75 L 6.078125 -2.671875 L 6.9375 -0.90625 L 6.734375 -0.5 L 4.828125 0 L 3.46875 -2.5 L 2.859375 -2.484375 L 2.75 -0.25 L 0.25 -0.03125 L 0.25 -9.890625 L 6.703125 -9.5 L 7.1875 -9.015625 L 7.203125 -3.578125 Z M 4.59375 -4.8125 L 4.609375 -7.578125 L 2.984375 -7.734375 L 2.921875 -4.703125 Z M 4.59375 -4.8125"/></g></g></g><g fill-opacity="1" fill="#0165a1"><g transform="translate(196.291254, 166.466708)"><g><path d="M 0.25 -9.84375 L 7.171875 -9.84375 L 7.0625 -7.4375 L 5.109375 -7.34375 L 4.828125 -0.203125 L 2.25 0.03125 L 2.3125 -7.359375 L 0.265625 -7.453125 Z M 0.25 -9.84375"/></g></g></g><g fill-opacity="1" fill="#0165a1"><g transform="translate(205.661047, 166.466708)"><g><path d="M 0.328125 -9.734375 L 3 -9.8125 L 2.65625 -0.25 L 0.25 0.015625 Z M 0.328125 -9.734375"/></g></g></g><g fill-opacity="1" fill="#0165a1"><g transform="translate(210.851594, 166.466708)"><g><path d="M 3.796875 -5.1875 L 7.09375 -5.171875 L 7.15625 -0.96875 L 6.6875 -0.09375 L 1.140625 -0.015625 L 0.3125 -0.5 L 0.25 -9.203125 L 0.640625 -9.78125 L 6.453125 -9.890625 L 7.21875 -9.265625 L 7.046875 -6.5 L 4.734375 -6.5 L 4.5625 -7.796875 L 2.828125 -7.71875 L 2.90625 -2.125 L 4.59375 -2.015625 L 4.640625 -3.1875 L 3.796875 -3.265625 Z M 3.796875 -5.1875"/></g></g></g><g fill-opacity="1" fill="#0165a1"><g transform="translate(220.258362, 166.466708)"><g><path d="M 2.359375 -2.40625 L 4.6875 -2.40625 L 5 -2.078125 L 4.71875 -0.390625 L 4.265625 -0.015625 L 2.921875 0.015625 L 2.296875 -0.40625 Z M 6.96875 -9.03125 L 7.03125 -4.90625 L 6.46875 -4.296875 L 4.78125 -3.859375 L 4.734375 -2.921875 L 2.453125 -2.921875 L 2.3125 -4.390625 L 2.890625 -5.671875 L 4.53125 -6 L 4.375 -7.453125 L 2.75 -7.578125 L 2.4375 -6.578125 L 0.71875 -6.671875 L 0.25 -7.046875 L 0.359375 -9.375 L 1.625 -9.84375 L 6.46875 -9.609375 Z M 6.96875 -9.03125"/></g></g></g><g fill-opacity="1" fill="#0165a1"><g transform="translate(229.480217, 166.466708)"><g/></g></g><g fill-opacity="1" fill="#0165a1"><g transform="translate(235.126903, 166.466708)"><g><path d="M 0.828125 -5.28125 L 5.8125 -5.1875 L 5.8125 -3.3125 L 0.734375 -3.359375 Z M 0.828125 -5.28125"/></g></g></g><g fill-opacity="1" fill="#0165a1"><g transform="translate(243.63372, 166.466708)"><g/></g></g><g fill-opacity="1" fill="#0165a1"><g transform="translate(249.280406, 166.466708)"><g><path d="M 6.28125 -9.796875 L 8.90625 -9.859375 L 8.5625 -0.546875 L 8.09375 0.03125 L 5.9375 0.015625 L 4.546875 -1.765625 L 3.203125 0.03125 L 0.890625 0 L 0.453125 -0.609375 L 0.453125 -0.6875 L 0.25 -9.859375 L 2.78125 -9.78125 L 3.171875 -3.265625 L 4.515625 -5 L 5.84375 -3.25 Z M 6.28125 -9.796875"/></g></g></g><g fill-opacity="1" fill="#0165a1"><g transform="translate(260.376139, 166.466708)"><g><path d="M 0.328125 -9.734375 L 3 -9.8125 L 2.65625 -0.25 L 0.25 0.015625 Z M 0.328125 -9.734375"/></g></g></g><g fill-opacity="1" fill="#0165a1"><g transform="translate(265.566686, 166.466708)"><g><path d="M 6.71875 -2.75 L 6.078125 -2.671875 L 6.9375 -0.90625 L 6.734375 -0.5 L 4.828125 0 L 3.46875 -2.5 L 2.859375 -2.484375 L 2.75 -0.25 L 0.25 -0.03125 L 0.25 -9.890625 L 6.703125 -9.5 L 7.1875 -9.015625 L 7.203125 -3.578125 Z M 4.59375 -4.8125 L 4.609375 -7.578125 L 2.984375 -7.734375 L 2.921875 -4.703125 Z M 4.59375 -4.8125"/></g></g></g><g fill-opacity="1" fill="#0165a1"><g transform="translate(274.961129, 166.466708)"><g/></g></g><g fill-opacity="1" fill="#0165a1"><g transform="translate(280.607815, 166.466708)"><g><path d="M 7 -6.40625 L 5.96875 -5.75 L 7.28125 -1.203125 L 7.09375 -0.59375 L 4.96875 0.03125 L 3.828125 -4.40625 L 2.953125 -3.84375 L 2.828125 -0.296875 L 0.25 -0.046875 L 0.328125 -9.890625 L 3.15625 -9.890625 L 3.0625 -6.859375 L 4.640625 -7.859375 L 4.796875 -9.90625 L 7.390625 -9.8125 Z M 7 -6.40625"/></g></g></g><g fill-opacity="1" fill="#0165a1"><g transform="translate(290.187183, 166.466708)"><g><path d="M 6.625 -9.859375 L 7.203125 -9.234375 L 7.109375 -0.90625 L 6.65625 -0.03125 L 1.125 0.015625 L 0.3125 -0.46875 L 0.25 -9.203125 L 0.640625 -9.828125 Z M 2.828125 -7.796875 L 2.90625 -2.09375 L 4.578125 -1.984375 L 4.59375 -7.640625 Z M 2.828125 -7.796875"/></g></g></g><g fill-opacity="1" fill="#0165a1"><g transform="translate(299.581626, 166.466708)"><g><path d="M 8.390625 -9.796875 L 8.5 -0.03125 L 5.921875 -0.09375 L 5.71875 -5.65625 L 4.359375 -3.609375 L 3.0625 -5.578125 L 2.875 -0.125 L 0.25 -0.03125 L 0.375 -9.890625 L 2.984375 -9.84375 L 4.359375 -7.625 L 5.671875 -9.84375 Z M 8.390625 -9.796875"/></g></g></g><g fill-opacity="1" fill="#0165a1"><g transform="translate(310.282858, 166.466708)"><g><path d="M 8.390625 -9.796875 L 8.5 -0.03125 L 5.921875 -0.09375 L 5.71875 -5.65625 L 4.359375 -3.609375 L 3.0625 -5.578125 L 2.875 -0.125 L 0.25 -0.03125 L 0.375 -9.890625 L 2.984375 -9.84375 L 4.359375 -7.625 L 5.671875 -9.84375 Z M 8.390625 -9.796875"/></g></g></g><g fill-opacity="1" fill="#0165a1"><g transform="translate(320.984091, 166.466708)"><g><path d="M 6.078125 -2.234375 L 6.21875 -0.03125 L 0.25 -0.03125 L 0.25 -9.890625 L 6.015625 -9.703125 L 5.9375 -7.453125 L 2.78125 -7.484375 L 2.78125 -6.25 L 4.8125 -6.125 L 4.8125 -3.984375 L 2.765625 -4.109375 L 2.75 -2.421875 Z M 6.078125 -2.234375"/></g></g></g><g fill-opacity="1" fill="#0165a1"><g transform="translate(329.392293, 166.466708)"><g><path d="M 4.953125 -9.6875 L 7.71875 -9.8125 L 7.359375 -0.09375 L 5.15625 -0.015625 L 2.890625 -4.8125 L 2.71875 -0.25 L 0.25 0 L 0.328125 -9.796875 L 2.984375 -9.796875 L 4.9375 -5.6875 Z M 4.953125 -9.6875"/></g></g></g><g fill-opacity="1" fill="#0165a1"><g transform="translate(339.304524, 166.466708)"><g><path d="M 2.65625 -2.953125 L 0.390625 -2.828125 L 0.28125 -9.703125 L 2.953125 -9.859375 Z M 0.3125 -2.421875 L 2.640625 -2.421875 L 2.953125 -2.078125 L 2.671875 -0.390625 L 2.21875 -0.03125 L 0.875 0.015625 L 0.25 -0.40625 Z M 0.3125 -2.421875"/></g></g></g></svg>